<svg width="287" height="70" viewBox="0 0 287 70" fill="none" xmlns="http://www.w3.org/2000/svg">
<path d="M33.9621 67.5656L0.988281 36.6417L33.9621 5.71777L5.14114 36.6417L33.9621 67.5656Z" fill="#FFFBF0"/>
<path d="M73.5085 36.5508L42.6144 69.7016L11.7305 36.5508L42.6144 63.2028L73.5085 36.5508Z" fill="#FFFBF0"/>
<path d="M82.5442 36.5945L49.7588 67.5656L78.7481 36.736L45.2223 6.31409L42.6074 47.2169C42.6074 47.2169 42.6646 6.83965 42.6343 0.580078L82.5442 36.5979V36.5945Z" fill="#FFFBF0"/>
<path d="M98.3711 27.1133H100.252L105.597 40.6802L110.961 27.1133H112.842L106.445 43.1598H104.772L98.3745 27.1133H98.3711Z" fill="#FFFBF0"/>
<path d="M115.615 27.1133H117.402V43.1598H115.615V27.1133Z" fill="#FFFBF0"/>
<path d="M120.636 27.1133H122.423V43.1598H120.636V27.1133ZM123.184 35.0102L130.682 27.1133H132.883L125.381 35.0102L133.361 43.1598H131.16L123.184 35.0102Z" fill="#FFFBF0"/>
<path d="M139.075 28.6293H133.94V27.1133H146.001V28.6293H140.866V43.1598H139.079V28.6293H139.075Z" fill="#FFFBF0"/>
<path d="M150.689 42.4603C149.427 41.7798 148.38 40.7556 147.67 39.5091C146.947 38.1682 146.57 36.669 146.57 35.1462C146.57 33.6235 146.947 32.1243 147.67 30.7834C148.38 29.5369 149.42 28.5127 150.676 27.8221C151.998 27.1281 153.469 26.7676 154.963 26.7676C156.457 26.7676 157.928 27.1314 159.251 27.8221C160.506 28.5127 161.546 29.5369 162.256 30.7834C162.979 32.1243 163.356 33.6235 163.356 35.1462C163.356 36.669 162.979 38.1682 162.256 39.5091C161.546 40.7556 160.499 41.7798 159.237 42.4603C157.914 43.1476 156.451 43.5047 154.96 43.5047C153.469 43.5047 152.005 43.1476 150.682 42.4603H150.686H150.689ZM158.312 41.0723C159.311 40.5299 160.139 39.7146 160.698 38.7174C161.27 37.6191 161.566 36.3995 161.569 35.1631C161.569 33.9267 161.276 32.7037 160.711 31.6054C160.159 30.6116 159.341 29.7929 158.349 29.2404C157.329 28.6778 156.178 28.3881 155.014 28.4015C153.839 28.3847 152.678 28.6677 151.641 29.2269C150.635 29.7727 149.804 30.5947 149.245 31.592C148.666 32.6903 148.364 33.9132 148.364 35.153C148.364 36.3961 148.66 37.6191 149.235 38.7174C149.79 39.7112 150.618 40.5265 151.621 41.0723C152.654 41.6147 153.802 41.8977 154.97 41.8977C156.138 41.8977 157.285 41.6147 158.318 41.0723H158.312Z" fill="#FFFBF0"/>
<path d="M166.113 27.1145H172.305C173.671 27.0168 175.024 27.4346 176.101 28.2836C176.885 29.1562 177.343 30.2747 177.393 31.4471C177.444 32.6195 177.084 33.775 176.377 34.7116C175.65 35.5505 174.644 36.0963 173.544 36.2512L177.35 43.161H175.492L171.733 36.3422H167.907V43.161H166.12V27.1145H166.113ZM172.073 34.8295C173.002 34.8834 173.92 34.6072 174.664 34.0479C174.987 33.7616 175.236 33.4078 175.401 33.0103C175.563 32.6127 175.633 32.1815 175.603 31.7536C175.65 31.3056 175.59 30.8575 175.428 30.4364C175.267 30.0186 175.007 29.6413 174.674 29.3414C173.91 28.8226 172.995 28.5733 172.073 28.6306H167.9V34.8295H172.073Z" fill="#FFFBF0"/>
<path d="M180.169 27.1133H181.96V43.1598H180.169V27.1133Z" fill="#FFFBF0"/>
<path d="M191.124 27.1133H192.797L199.194 43.1598H197.36L195.64 38.8677H188.257L186.561 43.1598H184.727L191.124 27.1133ZM195.139 37.3516L191.952 29.1818L188.789 37.3516H195.139Z" fill="#FFFBF0"/>
<path d="M201.64 27.1137H207.395C208.983 27.0767 210.562 27.4068 212.005 28.0739C213.271 28.6736 214.328 29.6337 215.044 30.8398C215.778 32.12 216.145 33.5788 216.111 35.051C216.111 37.7125 215.33 39.7306 213.772 41.0984C212.214 42.4662 210.05 43.1535 207.284 43.1535H201.644V27.1104L201.64 27.1137ZM207.624 39.7407C208.216 39.7777 208.812 39.6868 209.364 39.4678C209.916 39.2488 210.414 38.9119 210.821 38.4773C211.605 37.5138 212.002 36.2942 211.935 35.0578C211.982 33.8753 211.585 32.7163 210.821 31.8101C210.437 31.3822 209.963 31.0453 209.434 30.8263C208.906 30.6074 208.334 30.5063 207.758 30.5366H205.695V39.7407H207.62H207.624Z" fill="#FFFBF0"/>
<path d="M217.713 27.1133H229.088V30.5328H221.772V33.5413H227.116V36.7317H221.772V39.7402H229.088V43.1598H217.713V27.1133Z" fill="#FFFBF0"/>
<path d="M230.694 27.1133H234.752V33.7738L240.278 27.1133H245.094L238.602 34.9192L245.528 43.1564H240.712L234.749 36.068V43.1631H230.69V27.1167L230.694 27.1133Z" fill="#FFFBF0"/>
<path d="M248.328 43.2178C247.476 43.0729 246.649 42.8067 245.875 42.426V38.7774C246.692 39.2019 247.557 39.5253 248.452 39.7376C249.29 39.9465 250.149 40.0543 251.01 40.0577C251.596 40.0947 252.181 39.9768 252.706 39.714C252.885 39.6197 253.029 39.4748 253.134 39.303C253.238 39.1312 253.285 38.929 253.282 38.7269C253.285 38.417 253.177 38.1205 252.972 37.888C252.716 37.6151 252.407 37.3928 252.067 37.2344C251.67 37.0357 251.05 36.7628 250.209 36.409C248.991 35.9576 247.887 35.2434 246.975 34.3203C246.366 33.5858 246.013 32.6728 245.972 31.7194C245.928 30.766 246.198 29.826 246.736 29.0377C247.281 28.2932 248.025 27.7137 248.88 27.3633C249.883 26.9489 250.96 26.7468 252.043 26.767C252.922 26.7569 253.797 26.8344 254.658 26.9961C255.419 27.1477 256.159 27.3936 256.859 27.7305V31.2882C255.614 30.611 254.217 30.2472 252.8 30.2337C252.195 30.2067 251.592 30.328 251.047 30.5908C250.852 30.6784 250.684 30.8233 250.569 31.0052C250.451 31.1871 250.391 31.396 250.394 31.6116C250.398 31.834 250.462 32.0529 250.579 32.2416C250.697 32.4303 250.862 32.5852 251.061 32.6897C251.848 33.1276 252.669 33.5016 253.514 33.8149C254.406 34.1552 255.257 34.5965 256.051 35.1221C256.61 35.4994 257.064 36.0115 257.371 36.6145C257.667 37.2951 257.808 38.0329 257.781 38.7741C257.811 39.4411 257.68 40.1048 257.398 40.7112C257.115 41.3176 256.694 41.8466 256.162 42.2509C255.086 43.0864 253.477 43.5008 251.337 43.5008C250.327 43.5008 249.321 43.4031 248.331 43.2144L248.328 43.2178Z" fill="#FFFBF0"/>
<path d="M259.384 27.1133H263.395L269.288 36.6644V27.1133H273.347V43.1598H269.352L263.436 33.5885V43.1598H259.38V27.1133H259.384Z" fill="#FFFBF0"/>
<path d="M275.41 27.1133H286.785V30.5328H279.468V33.5413H284.812V36.7317H279.468V39.7402H286.785V43.1598H275.41V27.1133Z" fill="#FFFBF0"/>
</svg>
